<svg width="1200" height="720" viewBox="0 0 1200 720" xmlns="http://www.w3.org/2000/svg">
  <defs>
    <style>
      .title { font: 700 34px -apple-system,BlinkMacSystemFont,'PingFang SC','Microsoft YaHei',sans-serif; fill:#1f2937; }
      .sub   { font: 400 20px -apple-system,BlinkMacSystemFont,'PingFang SC','Microsoft YaHei',sans-serif; fill:#4b5563; }
      .axis  { stroke:#374151; stroke-width:2; }
      .grid  { stroke:#e5e7eb; stroke-width:1; }
      .tick  { font: 500 15px -apple-system,BlinkMacSystemFont,'PingFang SC',sans-serif; fill:#4b5563; }
      .label { font: 600 17px -apple-system,BlinkMacSystemFont,'PingFang SC',sans-serif; fill:#111827; }
      .note  { font: 600 20px -apple-system,BlinkMacSystemFont,'PingFang SC',sans-serif; fill:#b45309; }
      .small { font: 400 15px -apple-system,BlinkMacSystemFont,'PingFang SC',sans-serif; fill:#6b7280; }
      .ate   { font: 700 16px -apple-system,BlinkMacSystemFont,'PingFang SC',sans-serif; fill:#9ca3af; }
    </style>
  </defs>

  <rect width="1200" height="720" fill="#ffffff"/>

  <text x="80" y="60" class="title">累计增益曲线（另一种常见画法）</text>
  <text x="80" y="92" class="sub">Y 轴换成"前 k% 人的累计净增量"= 覆盖比例 × 平均 uplift；随机基线变为斜线</text>

  <!-- 绘图区 x: 130→1060, y: 120→560 -->
  <rect x="130" y="120" width="930" height="440" fill="#fafafa"/>

  <!-- 水平网格线 -->
  <line x1="130" y1="208" x2="1060" y2="208" class="grid"/>
  <line x1="130" y1="296" x2="1060" y2="296" class="grid"/>
  <line x1="130" y1="384" x2="1060" y2="384" class="grid"/>
  <line x1="130" y1="472" x2="1060" y2="472" class="grid"/>

  <!-- 垂直网格线 -->
  <line x1="223" y1="120" x2="223" y2="560" class="grid"/>
  <line x1="409" y1="120" x2="409" y2="560" class="grid"/>
  <line x1="595" y1="120" x2="595" y2="560" class="grid"/>
  <line x1="781" y1="120" x2="781" y2="560" class="grid"/>
  <line x1="967" y1="120" x2="967" y2="560" class="grid"/>

  <!--
    累计增益 G(p) = p × U(p)，与前两张图使用同一条 U(p) 曲线
    coverage%:  0    10    20    30    40    50    60    70    80    90    100
    G(p):       0  0.030 0.048 0.057 0.064 0.070 0.072 0.077 0.080 0.081 0.080
    y_svg = 560 - G / 0.10 * 440 = 560 - G * 4400

    随机基线 G_rand(p) = p × ATE = p × 0.08（斜线）
    coverage%:  0    10    20    30    40    50    60    70    80    90    100
    G_rand:     0  0.008 0.016 0.024 0.032 0.040 0.048 0.056 0.064 0.072 0.080
  -->

  <!-- Qini 着色区（模型曲线与斜线基线之间） -->
  <polygon points="130,560 223,428 316,349 409,309 502,278 595,252 688,243 781,221 874,208 967,204 1060,208 967,243 874,278 781,314 688,349 595,384 502,419 409,454 316,490 223,525 130,560"
           fill="#fde68a" fill-opacity="0.70"/>

  <!-- 随机基线（斜线，从原点到 ATE × 1） -->
  <line x1="130" y1="560" x2="1060" y2="208" stroke="#9ca3af" stroke-width="3" stroke-dasharray="10 6"/>

  <!-- 模型累计增益曲线（从左下向右上延伸） -->
  <polyline points="130,560 223,428 316,349 409,309 502,278 595,252 688,243 781,221 874,208 967,204 1060,208"
            fill="none" stroke="#2563eb" stroke-width="5" stroke-linejoin="round" stroke-linecap="round"/>

  <!-- 坐标轴 -->
  <line x1="130" y1="560" x2="1060" y2="560" class="axis"/>
  <line x1="130" y1="560" x2="130"  y2="120" class="axis"/>

  <!-- Y 轴刻度 -->
  <line x1="122" y1="208" x2="130" y2="208" stroke="#374151" stroke-width="2"/>
  <line x1="122" y1="296" x2="130" y2="296" stroke="#374151" stroke-width="2"/>
  <line x1="122" y1="384" x2="130" y2="384" stroke="#374151" stroke-width="2"/>
  <line x1="122" y1="472" x2="130" y2="472" stroke="#374151" stroke-width="2"/>
  <line x1="122" y1="560" x2="130" y2="560" stroke="#374151" stroke-width="2"/>

  <!-- Y 轴标签 -->
  <text x="116" y="212" text-anchor="end" class="tick">0.08</text>
  <text x="116" y="300" text-anchor="end" class="tick">0.06</text>
  <text x="116" y="388" text-anchor="end" class="tick">0.04</text>
  <text x="116" y="476" text-anchor="end" class="tick">0.02</text>
  <text x="116" y="564" text-anchor="end" class="tick">0</text>

  <!-- X 轴刻度 -->
  <line x1="130"  y1="560" x2="130"  y2="568" stroke="#374151" stroke-width="2"/>
  <line x1="223"  y1="560" x2="223"  y2="568" stroke="#374151" stroke-width="2"/>
  <line x1="409"  y1="560" x2="409"  y2="568" stroke="#374151" stroke-width="2"/>
  <line x1="595"  y1="560" x2="595"  y2="568" stroke="#374151" stroke-width="2"/>
  <line x1="781"  y1="560" x2="781"  y2="568" stroke="#374151" stroke-width="2"/>
  <line x1="967"  y1="560" x2="967"  y2="568" stroke="#374151" stroke-width="2"/>
  <line x1="1060" y1="560" x2="1060" y2="568" stroke="#374151" stroke-width="2"/>

  <!-- X 轴标签 -->
  <text x="130"  y="588" text-anchor="middle" class="tick">0%</text>
  <text x="223"  y="588" text-anchor="middle" class="tick">10%</text>
  <text x="409"  y="588" text-anchor="middle" class="tick">30%</text>
  <text x="595"  y="588" text-anchor="middle" class="tick">50%</text>
  <text x="781"  y="588" text-anchor="middle" class="tick">70%</text>
  <text x="967"  y="588" text-anchor="middle" class="tick">90%</text>
  <text x="1060" y="588" text-anchor="middle" class="tick">100%</text>

  <!-- X 轴标题 -->
  <text x="595" y="622" text-anchor="middle" class="label">覆盖人群比例（按预测 uplift 从高到低排序）</text>

  <!-- Y 轴标题（旋转） -->
  <text x="50" y="340" text-anchor="middle" class="label" transform="rotate(-90,50,340)">前 k% 用户的累计净增量 G(p)</text>

  <!-- Qini 标注 -->
  <text x="420" y="360" text-anchor="middle" class="note">Qini</text>
  <text x="420" y="385" text-anchor="middle" font-size="15" fill="#b45309">（与斜线基线之间的面积）</text>

  <!-- 两线在 100% 处汇合的标注 -->
  <circle cx="1060" cy="208" r="6" fill="#374151"/>
  <text x="1072" y="205" class="ate">← 100% 时两线汇合</text>
  <text x="1072" y="222" class="ate">（均等于 ATE）</text>

  <!-- 图例 -->
  <rect x="710" y="130" width="330" height="108" fill="white" stroke="#e5e7eb" stroke-width="1" rx="4"/>
  <line x1="728" y1="158" x2="766" y2="158" stroke="#2563eb" stroke-width="5"/>
  <text x="778" y="163" class="label">模型累计增益曲线 G(p)</text>
  <line x1="728" y1="190" x2="766" y2="190" stroke="#9ca3af" stroke-width="3" stroke-dasharray="10 6"/>
  <text x="778" y="195" class="label">随机基线（斜线 = p × ATE）</text>
  <rect x="728" y="206" width="38" height="18" fill="#fde68a" fill-opacity="0.70" stroke="#b45309" stroke-width="1"/>
  <text x="778" y="220" class="label">Qini 面积</text>

  <!-- 说明文字 -->
  <text x="80" y="655" class="small">读图要点：曲线从左下角向右上延伸，随机基线是斜线（不是水平线）；两条线在 100% 覆盖时汇合于同一点（= ATE）。</text>
  <text x="80" y="680" class="small">这张图与"平均 uplift 曲线"包含相同信息，仅纵轴换成了累计量，causalml / EconML 等工具库默认使用这种画法。</text>
</svg>
